<?xml version="1.0" encoding="utf-8"?>
<svg width="31.5" height="30" viewBox="0 0 31.5 30" fill="none" xmlns="http://www.w3.org/2000/svg">
  <path d="M27 8.25C29.4855 8.25 31.5 10.2645 31.5 12.75C31.5 12.75 31.5 25.5 31.5 25.5C31.5 27.9817 29.4817 30 27 30C27 30 4.5 30 4.5 30C2.01825 30 0 27.9817 0 25.5C0 25.5 0 12.75 0 12.75C0 10.2645 2.0145 8.25 4.5 8.25C4.5 8.25 27 8.25 27 8.25C27 8.25 27 8.25 27 8.25ZM8.25 24.75C8.25 24.75 8.25 23.25 8.25 23.25C8.25 22.836 7.914 22.5 7.5 22.5C7.5 22.5 6 22.5 6 22.5C5.586 22.5 5.25 22.836 5.25 23.25C5.25 23.25 5.25 24.75 5.25 24.75C5.25 25.164 5.586 25.5 6 25.5C6 25.5 7.5 25.5 7.5 25.5C7.914 25.5 8.25 25.164 8.25 24.75C8.25 24.75 8.25 24.75 8.25 24.75ZM8.25 19.5C8.25 19.5 8.25 18 8.25 18C8.25 17.586 7.914 17.25 7.5 17.25C7.5 17.25 6 17.25 6 17.25C5.586 17.25 5.25 17.586 5.25 18C5.25 18 5.25 19.5 5.25 19.5C5.25 19.914 5.586 20.25 6 20.25C6 20.25 7.5 20.25 7.5 20.25C7.914 20.25 8.25 19.914 8.25 19.5C8.25 19.5 8.25 19.5 8.25 19.5ZM14.25 24.75C14.25 24.75 14.25 23.25 14.25 23.25C14.25 22.836 13.914 22.5 13.5 22.5C13.5 22.5 12 22.5 12 22.5C11.586 22.5 11.25 22.836 11.25 23.25C11.25 23.25 11.25 24.75 11.25 24.75C11.25 25.164 11.586 25.5 12 25.5C12 25.5 13.5 25.5 13.5 25.5C13.914 25.5 14.25 25.164 14.25 24.75C14.25 24.75 14.25 24.75 14.25 24.75ZM14.25 19.5C14.25 19.5 14.25 18 14.25 18C14.25 17.586 13.914 17.25 13.5 17.25C13.5 17.25 12 17.25 12 17.25C11.586 17.25 11.25 17.586 11.25 18C11.25 18 11.25 19.5 11.25 19.5C11.25 19.914 11.586 20.25 12 20.25C12 20.25 13.5 20.25 13.5 20.25C13.914 20.25 14.25 19.914 14.25 19.5C14.25 19.5 14.25 19.5 14.25 19.5ZM14.25 14.25C14.25 14.25 14.25 12.75 14.25 12.75C14.25 12.336 13.914 12 13.5 12C13.5 12 12 12 12 12C11.586 12 11.25 12.336 11.25 12.75C11.25 12.75 11.25 14.25 11.25 14.25C11.25 14.664 11.586 15 12 15C12 15 13.5 15 13.5 15C13.914 15 14.25 14.664 14.25 14.25C14.25 14.25 14.25 14.25 14.25 14.25ZM20.25 24.75C20.25 24.75 20.25 23.25 20.25 23.25C20.25 22.836 19.914 22.5 19.5 22.5C19.5 22.5 18 22.5 18 22.5C17.586 22.5 17.25 22.836 17.25 23.25C17.25 23.25 17.25 24.75 17.25 24.75C17.25 25.164 17.586 25.5 18 25.5C18 25.5 19.5 25.5 19.5 25.5C19.914 25.5 20.25 25.164 20.25 24.75C20.25 24.75 20.25 24.75 20.25 24.75ZM20.25 19.5C20.25 19.5 20.25 18 20.25 18C20.25 17.586 19.914 17.25 19.5 17.25C19.5 17.25 18 17.25 18 17.25C17.586 17.25 17.25 17.586 17.25 18C17.25 18 17.25 19.5 17.25 19.5C17.25 19.914 17.586 20.25 18 20.25C18 20.25 19.5 20.25 19.5 20.25C19.914 20.25 20.25 19.914 20.25 19.5C20.25 19.5 20.25 19.5 20.25 19.5ZM20.25 14.25C20.25 14.25 20.25 12.75 20.25 12.75C20.25 12.336 19.914 12 19.5 12C19.5 12 18 12 18 12C17.586 12 17.25 12.336 17.25 12.75C17.25 12.75 17.25 14.25 17.25 14.25C17.25 14.664 17.586 15 18 15C18 15 19.5 15 19.5 15C19.914 15 20.25 14.664 20.25 14.25C20.25 14.25 20.25 14.25 20.25 14.25ZM26.25 19.5C26.25 19.5 26.25 18 26.25 18C26.25 17.586 25.914 17.25 25.5 17.25C25.5 17.25 24 17.25 24 17.25C23.586 17.25 23.25 17.586 23.25 18C23.25 18 23.25 19.5 23.25 19.5C23.25 19.914 23.586 20.25 24 20.25C24 20.25 25.5 20.25 25.5 20.25C25.914 20.25 26.25 19.914 26.25 19.5C26.25 19.5 26.25 19.5 26.25 19.5ZM26.25 14.25C26.25 14.25 26.25 12.75 26.25 12.75C26.25 12.336 25.914 12 25.5 12C25.5 12 24 12 24 12C23.586 12 23.25 12.336 23.25 12.75C23.25 12.75 23.25 14.25 23.25 14.25C23.25 14.664 23.586 15 24 15C24 15 25.5 15 25.5 15C25.914 15 26.25 14.664 26.25 14.25C26.25 14.25 26.25 14.25 26.25 14.25ZM4.5 6C2.769 6 1.19475 6.657 0 7.72875C0 7.72875 0 4.5 0 4.5C0 2.01825 2.01825 0 4.5 0C4.5 0 27 0 27 0C29.4817 0 31.5 2.01825 31.5 4.5C31.5 4.5 31.5 7.72875 31.5 7.72875C30.3052 6.657 28.731 6 27 6C27 6 4.5 6 4.5 6C4.5 6 4.5 6 4.5 6Z" fill="#FFFFFF" transform="translate(-0 -0)" />
</svg>