<?xml version="1.0" encoding="utf-8"?>
<svg width="46" height="46" viewBox="0 0 46 46" fill="none" xmlns="http://www.w3.org/2000/svg">
  <g>
    <path d="M14.99 0C13.9991 0 13.0524 0.391599 12.3509 1.0931C12.3509 1.0931 11.5273 1.91667 11.5273 1.91667C11.5273 1.91667 1.94396 1.91667 1.94396 1.91667C1.25274 1.90689 0.609807 2.27005 0.261345 2.86709C-0.0871162 3.46413 -0.0871148 4.20255 0.261349 4.79958C0.609812 5.39662 1.25275 5.75978 1.94397 5.75C1.94397 5.75 32.6106 5.75 32.6106 5.75C33.3018 5.75978 33.9448 5.39661 34.2933 4.79958C34.6417 4.20254 34.6417 3.46412 34.2932 2.86709C33.9448 2.27005 33.3018 1.90689 32.6106 1.91667C32.6106 1.91667 23.0273 1.91667 23.0273 1.91667C23.0273 1.91667 22.2037 1.0931 22.2037 1.0931C21.5041 0.391599 20.5555 0 19.5646 0C19.5646 0 14.99 0 14.99 0C14.99 0 14.99 0 14.99 0ZM2.64421 9.58338C2.64421 9.58338 5.57162 35.0054 5.57162 35.0054C5.82462 36.9029 7.45843 38.3334 9.37127 38.3334C9.37127 38.3334 25.18 38.3334 25.18 38.3334C27.0929 38.3334 28.7285 36.9052 28.9834 34.9904C28.9834 34.9904 31.9108 9.58338 31.9108 9.58338L2.64421 9.58338L2.64421 9.58338Z" fill="#EB1C1C" transform="translate(5.722 3.833)" />
  </g>
</svg>