<?xml version="1.0" encoding="utf-8"?>
<svg width="36" height="39" viewBox="0 0 36 39" fill="none" xmlns="http://www.w3.org/2000/svg">
  <path d="M33.5 39C33.5 39 24.5 39 24.5 39C23.119 39 22 37.881 22 36.5C22 36.5 22 27.5 22 27.5C22 26.395 21.105 25.5 20 25.5C20 25.5 16 25.5 16 25.5C14.895 25.5 14 26.395 14 27.5C14 27.5 14 36.5 14 36.5C14 37.881 12.881 39 11.5 39C11.5 39 2.5 39 2.5 39C1.119 39 0 37.881 0 36.5C0 36.5 0 17.413 0 17.413C0 15.114 1.054 12.942 2.859 11.52C2.859 11.52 17.071 0.321 17.071 0.321C17.616 -0.107 18.384 -0.107 18.928 0.321C18.928 0.321 33.142 11.52 33.142 11.52C34.947 12.942 36 15.113 36 17.411C36 17.411 36 36.5 36 36.5C36 37.881 34.881 39 33.5 39C33.5 39 33.5 39 33.5 39Z" fill="#FFFFFF" />
</svg>