<?xml version="1.0" encoding="utf-8"?>
<svg width="48" height="48" viewBox="0 0 48 48" fill="none" xmlns="http://www.w3.org/2000/svg">
  <g>
    <path d="M0 6.5C0 2.91015 2.91015 0 6.5 0C10.0899 0 13 2.91015 13 6.5C13 10.0899 10.0899 13 6.5 13C2.91015 13 0 10.0899 0 6.5Z" fill="none" stroke-width="4" stroke="#FFFFFF" transform="translate(17.5 17.5)" />
    <path d="M11 30.2C12.2 29.5 13.8 29.4 15.1 30C15.1 30 17.8 31.2 17.8 31.2C19.7 29.2 21.2 26.7 22 23.9C22 23.9 19.6 22.2 19.6 22.2C18.4 21.4 17.8 20 17.8 18.6C17.8 17.2 18.5 15.8 19.6 15C19.6 15 22 13.3 22 13.3C21.2 10.5 19.7 8.1 17.8 6C17.8 6 15.1 7.2 15.1 7.2C13.8 7.8 12.3 7.7 11 7C9.7 6.3 8.9 5 8.8 3.6C8.8 3.6 8.4 0.5 8.4 0.5C7 0.2 5.6 0 4.2 0C2.8 0 1.3 0.2 0 0.5" fill="none" stroke-width="4" stroke="#FFFFFF" stroke-linecap="round" stroke-linejoin="round" transform="translate(19.8 5.5)" />
    <path d="M11 1C9.8 1.7 8.2 1.8 6.9 1.2C6.9 1.2 4.2 0 4.2 0C2.3 2 0.8 4.5 4.76837e-07 7.3C4.76837e-07 7.3 2.4 9 2.4 9C3.6 9.8 4.2 11.2 4.2 12.6C4.2 14 3.5 15.4 2.4 16.2C2.4 16.2 0 17.9 0 17.9C0.8 20.7 2.3 23.1 4.2 25.2C4.2 25.2 6.9 24 6.9 24C8.2 23.4 9.7 23.5 11 24.2C12.3 24.9 13.1 26.2 13.2 27.6C13.2 27.6 13.5 30.5 13.5 30.5C14.9 30.8 16.3 31 17.7 31C19.1 31 20.6 30.8 21.9 30.5" fill="none" stroke-width="4" stroke="#FFFFFF" stroke-linecap="round" stroke-linejoin="round" transform="translate(6.3 11.3)" />
  </g>
</svg>